<?xml version="1.0" encoding="UTF-8"?>
<svg id="Camada_2" data-name="Camada 2" xmlns="http://www.w3.org/2000/svg" viewBox="0 0 2549.74 1242.26">
  <defs>
    <style>
      .cls-1 {
        fill: #081e33;
        fill-rule: evenodd;
        stroke-width: 0px;
      }
    </style>
  </defs>
  <g id="Camada_1-2" data-name="Camada 1">
    <path id="Le20_1" data-name="Le20 1" class="cls-1" d="M2497.78,500.23c-33.51,65.49-76.88,125.44-128.59,177.76-49.84,50.51-106.71,93.56-168.86,127.8-61.49,33.73-117.78,50.6-168.85,50.6-36.37,0-64.3-9.96-83.79-29.89-19.49-19.92-29.23-57.12-29.22-111.59,0-70.07,30.09-145.75,90.28-227.06,60.58-81.66,136.18-151.02,222.76-204.35,88.32-54.92,169.72-82.39,244.19-82.39,28.58,0,48.06,7.78,58.45,23.35,10.39,15.57,15.58,43.68,15.59,84.35,0,60.59-17.32,124.4-51.96,191.42ZM2499.73,225.8c-6.86-5.3-15.36-8.06-24.03-7.78-33.77,0-93.52,38.29-179.25,114.88-83.29,73.88-158.61,156.29-224.71,245.87-68.42,93.4-102.62,163.89-102.61,211.49-.22,12.39,4.18,24.41,12.34,33.73,7.88,9.36,19.6,14.62,31.83,14.27,25.1,0,62.12-20.33,111.05-60.98,55.89-47.59,107.8-99.67,155.22-155.7,59.86-67.9,114.36-140.35,163.01-216.68,44.59-70.92,66.88-123.68,66.89-158.3.28-8.1-3.34-15.84-9.74-20.82h0ZM1617.14,631.93c-64.94,14.72-113.86,26.61-146.77,35.69-35.84,10.16-70.8,23.17-104.56,38.92-36.82,16.87-59.54,34.39-68.18,52.55h63.65c39.38-.75,78.29,8.63,113.01,27.24,36.37,19.04,63.65,28.56,81.83,28.55,17.32,0,35.93-8.22,55.85-24.66,17.8-14.18,33.54-30.78,46.76-49.3l15.59-24.66c3.98-6.24,10.78-10.12,18.18-10.38,7.79,0,9.95,3.46,6.49,10.38-70.14,98.62-130.32,147.93-180.54,147.92-28.44-1.33-56.7-5.24-84.43-11.67-30.72-6.91-62.04-10.82-93.52-11.68l-164.97,10.39c34.5-50.01,77.6-93.5,127.3-128.46,51.06-34.59,148.47-76.11,292.24-124.56,49.36-16.42,104.35-57.07,164.97-121.97,60.61-64.89,90.92-121.55,90.92-169.98.15-22.98-8.71-45.11-24.68-61.64-15.52-17.32-37.8-27.02-61.04-26.6-62.35,0-120.15,24.44-173.4,73.31-53.25,48.87-79.88,96.66-79.89,143.37-.46,14.34,4.66,28.3,14.29,38.93,9.67,10.45,23.44,16.14,37.67,15.57,35.49,0,69.48-18.17,101.97-54.5,28.5-30.5,52.35-65.04,70.78-102.5.86-3.45,4.32-4.31,10.4-2.6,3.45.88,4.32,4.34,2.6,10.39-1.75,4.36-4.55,10.2-8.41,17.51-3.85,7.32-12.3,20.51-25.33,39.58-12,17.78-25.24,34.68-39.62,50.6-14.73,15.74-31.82,29.09-50.66,39.57-18.65,11.2-39.94,17.24-61.7,17.51-19.02.37-37.36-7.14-50.65-20.75-13.45-12.85-20.98-30.71-20.79-49.31,0-51.03,28.79-102.49,86.38-154.4,57.59-51.91,119.72-77.86,186.39-77.85,41.83-.22,82.36,14.5,114.3,41.51,33.13,26.31,51.9,66.71,50.66,108.99,0,66.62-31.17,125.01-93.52,175.16-64.21,51.08-139.37,86.61-219.59,103.82h0ZM1217.97,1008.68c17.74-.75,34.72,7.25,45.43,21.41,12.61,16.34,18.92,40.44,18.92,72.3l-.16,4.97h-89.51c-.48,10.8,2.61,21.45,8.79,30.32,4.69,6.66,12.31,10.65,20.45,10.73,11.51,0,19.18-7.85,23.02-23.55l35.49,7.28c-3.37,14.28-11.14,27.15-22.21,36.79-10.45,8.14-23.4,12.39-36.64,12.01-17.72.99-34.86-6.43-46.27-20.02-13.87-18.79-20.68-41.86-19.25-65.17-1.19-23.59,5.64-46.89,19.38-66.11,9.94-13.47,25.81-21.28,42.55-20.95ZM1246.81,1080.71c.46-10.3-2.42-20.47-8.22-29-4.25-6-11.1-9.61-18.46-9.72-7.63.04-14.75,3.81-19.07,10.11-5.73,8.4-8.46,18.48-7.75,28.62h53.51,0ZM1067.16,469.9l-17.45-45.31c15.48-5.54,28.79-15.87,37.99-29.49,8.62-15.89,12.9-33.77,12.4-51.83h-43.03v-108.84h89.16v78.1c0,43.82-5.17,76.56-15.5,98.21-13.23,26.84-35.85,47.89-63.57,59.17h0ZM718.34,336.09c-49.36,69.21-90.5,125.22-123.43,168.03-32.93,42.81-74.93,91.9-126,147.27-43.68,48.74-92.45,92.68-145.47,131.05,19.03,10.37,49.77,29.4,92.22,57.08,34.44,23.24,70.71,43.63,108.46,60.99,28.42,12.66,59.16,19.29,90.28,19.46,29.08.74,57.81-6.43,83.12-20.76,3.58-2.15,8.23-1,10.39,2.59,2.15,3.58,1,8.23-2.59,10.39-40.71,21.61-77.08,32.42-109.11,32.44-15.41,0-30.81-.86-46.12-2.6-15.16-1.74-28.79-3.25-40.91-4.54-13.7-1.65-27.19-4.69-40.27-9.08-14.73-4.76-26.42-8.44-35.07-11.03-11.81-3.89-23.32-8.66-34.42-14.27-14.29-6.94-24.25-11.7-29.89-14.28-10.46-5.32-20.65-11.17-30.52-17.51-14.74-9.08-23.61-14.49-26.63-16.22-3.01-1.73-12.11-7.57-27.28-17.51-15.15-9.96-23.6-15.37-25.33-16.22-49.39,27.2-104.68,41.9-161.06,42.82-24.24.76-48.31-4.37-70.14-14.94C9.52,839.31,0,826.12,0,809.67,0,782.86,14.5,762.97,43.51,749.98c31.37-13.45,65.24-20.08,99.36-19.45,47.55.75,94.44,11.35,137.68,31.14,36.37-35.49,87.02-102.31,151.96-200.46,64.94-98.15,111.29-164.97,139.04-200.45-44.83,5.27-89.94,7.87-135.09,7.78-60.12,1.17-119.56-12.89-172.78-40.87-50.23-27.24-75.35-68.11-75.34-122.61-.41-45.87,19.87-89.48,55.21-118.72,37.03-32.56,81.36-55.7,129.24-67.47C424.21,6.06,477.02-.28,530,0c36.1.08,72.07,4.44,107.15,12.98,28.21,6.17,55.82,14.86,82.49,25.95l27.27,12.97c3.51,2.28,4.51,6.97,2.23,10.48-2.16,3.34-6.54,4.43-10.02,2.51-28.04-13.79-57.42-24.66-87.68-32.45-39.49-11.25-80.36-16.92-121.41-16.87-87.47,0-163.68,16-228.61,48.01-64.93,32.01-97.4,79.15-97.42,141.43,0,48.45,23.17,85.21,69.5,110.28,50.31,26.05,106.37,38.99,163,37.63,49.94.4,99.85-2.63,149.38-9.08,69.7-87.85,150.22-166.54,239.64-234.2,87.87-66.18,168.62-99.27,242.25-99.26,13.63-.08,26.73,5.31,36.37,14.94,9.64,8.33,15.3,20.35,15.59,33.09,0,45.86-37.45,96.24-112.36,151.16-74.9,54.92-171.25,97.08-289.03,126.5h0ZM94.87,756.52c-19.33-.82-38.48,3.91-55.21,13.63-13.85,8.27-22.07,23.45-21.43,39.57,0,11.25,7.78,19.9,23.35,25.95,18.33,6.52,37.7,9.6,57.15,9.09,46.93-.3,92.67-14.78,131.23-41.53-52.83-31.13-97.86-46.7-135.09-46.7ZM1092.42,35.1c-6.96-5.74-15.66-8.94-24.68-9.08-15.46-.09-30.89,1.22-46.12,3.89-14.95,2.83-29.39,7.87-42.86,14.94-14.32,7.36-26.88,13.85-37.67,19.46-13.81,7.98-26.3,18.04-37.02,29.84-13.86,14.28-24.68,25.31-32.47,33.09-12.29,13.14-23.78,27.01-34.42,41.52-15.16,19.92-25.98,34.41-32.47,43.47-6.49,9.05-18.4,26.14-35.72,51.25-17.32,25.1-29.44,42.4-36.37,51.9,109.11-28.54,198.3-68.55,267.58-120.01,69.27-51.47,103.91-97.1,103.91-136.89.16-9.25-4.21-17.99-11.69-23.41v.03ZM406.66,956.11c9.22,4.6,16.72,12.04,21.4,21.23,5.85,11.14,8.75,23.59,8.41,36.16.75,15.34-3.77,30.48-12.8,42.91-9.1,11.17-22.09,18.48-36.36,20.45,7.56,5.31,14.3,11.7,20,18.97,8.16,11.72,15.37,24.08,21.56,36.95l22.64,44.3h-44.9l-27.23-49.42c-5.98-11.57-12.66-22.76-19.98-33.53-2.89-4-6.75-7.21-11.21-9.34-6.09-2.04-12.51-2.91-18.92-2.56h-7.75v94.8h-37.53v-227.06h79.3c14.72-.87,29.47,1.21,43.37,6.12v.03ZM321.53,988.41v57.63h27.92c10.9.52,21.83-.23,32.56-2.24,4.74-1.57,8.76-4.79,11.32-9.07,3.14-5.5,4.65-11.79,4.34-18.12.29-6.11-1.22-12.17-4.34-17.43-2.76-4.29-6.93-7.49-11.79-9.06-10.09-1.62-20.33-2.19-30.54-1.71h-29.47ZM523.12,1008.68c17.74-.75,34.72,7.25,45.44,21.41,12.61,16.34,18.91,40.44,18.91,72.3l-.16,4.97h-89.46c-.49,10.8,2.6,21.45,8.78,30.32,4.69,6.66,12.31,10.65,20.45,10.73,11.51,0,19.19-7.85,23.02-23.55l35.49,7.28c-3.37,14.28-11.14,27.15-22.2,36.79-10.45,8.14-23.4,12.39-36.64,12.01-17.72,1-34.87-6.42-46.27-20.02-13.88-18.79-20.69-41.86-19.26-65.17-1.2-23.59,5.64-46.9,19.39-66.11,9.93-13.46,25.78-21.27,42.5-20.95ZM551.96,1080.71c.46-10.3-2.42-20.47-8.22-29-4.25-6-11.1-9.61-18.46-9.72-7.63.04-14.75,3.82-19.07,10.11-5.72,8.4-8.45,18.48-7.75,28.62h53.5ZM648.57,1036.7c4.17-8.26,10.37-15.33,18.01-20.55,7.08-4.87,15.48-7.48,24.08-7.47,16.1.35,30.99,8.59,39.83,22.04,12.2,18.47,18.05,40.42,16.66,62.52,0,28.35-5.58,50.05-16.75,65.1-8.7,13.69-23.64,22.15-39.85,22.58-6.98.04-13.85-1.75-19.92-5.19-7.69-4.9-14.31-11.3-19.46-18.82v82.72h-35.82v-227.08h33.18v24.15h.04ZM659.78,1133.16c4.5,7.92,12.8,12.92,21.9,13.21,8.51-.21,16.29-4.83,20.55-12.2,6.55-12.21,9.47-26.03,8.41-39.84.97-13.48-2.01-26.96-8.59-38.77-4.34-7.53-12.28-12.27-20.97-12.51-8.83.08-17.01,4.69-21.66,12.2-6.55,11.09-9.57,23.9-8.67,36.74-1.06,14.31,2.08,28.62,9.01,41.18h.02ZM807.21,1035.93c3.68-8.17,8.86-15.58,15.28-21.84,4.4-3.58,9.91-5.5,15.58-5.43,8.49.11,16.71,2.99,23.41,8.21l-11.21,37.95c-4.6-4.22-10.51-6.73-16.75-7.12-4.92,0-9.64,1.98-13.08,5.5-4.66,5.67-7.49,12.62-8.14,19.93-2.09,17.6-2.92,35.32-2.47,53.04v50.86h-35.83v-164.49h33.18v23.35l.02.03ZM928.34,1008.68c17.74-.75,34.72,7.25,45.44,21.41,12.61,16.34,18.92,40.44,18.92,72.3l-.16,4.97h-89.47c-.48,10.8,2.61,21.45,8.79,30.32,4.69,6.66,12.31,10.65,20.45,10.73,11.51,0,19.18-7.85,23.01-23.55l35.49,7.28c-3.37,14.28-11.14,27.15-22.2,36.79-10.45,8.14-23.4,12.39-36.64,12.01-17.72.99-34.86-6.43-46.27-20.02-13.87-18.79-20.68-41.86-19.25-65.17-1.2-23.59,5.63-46.89,19.38-66.11,9.93-13.46,25.78-21.27,42.5-20.95ZM957.18,1080.71c.46-10.3-2.42-20.47-8.21-29-4.25-6-11.1-9.61-18.46-9.72-7.63.04-14.75,3.81-19.07,10.11-5.73,8.4-8.46,18.48-7.76,28.62h53.5ZM870.32,791.53c-24.1,20.66-50.46,38.52-78.58,53.24-20.5,11.57-43.4,18.23-66.9,19.46-33.77,0-59.32-8.87-76.63-26.6-17.69-18.67-27.07-43.72-25.98-69.42,0-41.52,14.72-84.12,44.17-127.8,28.07-42.23,62.97-79.5,103.26-110.29,36.26-27.85,74.95-52.39,115.61-73.31,37.67-19.02,65.6-28.53,83.78-28.54,10.19-.07,20,3.89,27.28,11.03,7.54,6.78,11.79,16.47,11.68,26.6,0,35.49-29.44,77.23-88.32,125.21-58.88,47.98-116.48,72.42-172.78,73.31-49.36,67.47-74.04,115.48-74.04,144.03,0,26.82,17.32,40.23,51.96,40.23,30.31,0,69.93-19.68,118.86-59.04,48.93-39.36,108.02-93.22,177.29-161.57h22.08c-3.46,3.47-16.23,16.45-38.29,38.93-22.07,22.48-43.28,43.24-63.65,62.29-20.33,19.02-43.92,39.77-70.78,62.26h.02ZM913.18,563.82c45.88-46.27,68.83-81.52,68.84-105.75,0-8.64-3.47-12.97-10.4-12.97-15.57,0-44.14,19.89-85.72,59.68-43.51,41.97-83.89,87.07-120.8,134.95,52.78-4.33,102.13-29.63,148.05-75.91h.02ZM1073.77,1149.49c6.78.5,13.54-1.24,19.23-4.96,4.08-3,6.45-7.8,6.35-12.86.18-3.09-.82-6.14-2.8-8.53-3.37-2.76-7.39-4.63-11.67-5.42-29.34-7.79-47.98-15.2-55.93-22.25-10.12-9.23-15.58-22.5-14.89-36.18-.62-13.78,4.69-27.17,14.57-36.8,11.78-9.93,26.97-14.89,42.34-13.81,14.19-.96,28.32,2.64,40.32,10.27,10.16,8.45,17.03,20.21,19.38,33.22l-33.62,7.59c-1.85-12.32-13.03-21.04-25.43-19.83-6.49-.52-12.99.8-18.76,3.81-3.47,2.07-5.6,5.81-5.6,9.85.03,3.68,1.96,7.09,5.11,9,10.1,4.99,20.76,8.75,31.75,11.21,15.11,3.09,29.13,10.12,40.63,20.4,7.37,8.89,11.13,20.22,10.56,31.75.44,14.86-5.52,29.19-16.35,39.37-12.45,10.9-28.69,16.47-45.2,15.5-15.32.67-30.42-3.89-42.8-12.94-11.6-9.53-19.36-22.92-21.86-37.72l35.83-6.66c3.11,17.31,12.73,25.96,28.86,25.96h.02ZM1344.2,1036.56c5-8.37,11.81-15.51,19.93-20.91,7.35-4.63,15.87-7.05,24.55-6.97,9.47-.3,18.78,2.56,26.44,8.14,7.05,5.23,12.26,12.56,14.89,20.93,3.17,12.06,4.55,24.52,4.11,36.98v102.32h-35.82v-84.06c.4-11.25-.28-22.5-2.02-33.62-.99-5-3.62-9.53-7.47-12.87-3.5-2.93-7.92-4.52-12.49-4.49-5.94-.02-11.7,2.04-16.28,5.82-5.04,4.12-8.64,9.74-10.27,16.05-2.49,12.71-3.48,25.68-2.94,38.62v74.59h-35.83v-164.54h33.18v24h0ZM1471.97,979.87l35.83-25.4v58.09h24.34v34.7h-24.34v66.4c-.36,8.34,0,16.7,1.08,24.97,1.11,3.9,4.79,6.48,8.84,6.2,4.98-.46,9.83-1.88,14.27-4.17l3.1,33.76c-8.68,4.45-18.32,6.69-28.07,6.54-7.82.39-15.54-1.92-21.86-6.54-5.74-4.78-9.63-11.42-11-18.76-1.89-12.1-2.61-24.35-2.18-36.59v-71.8h-16.44v-34.7h16.44v-32.69h0ZM1567.16,1091.42c9.24-5.31,19.3-9.03,29.77-11.01,11.87-2.33,23.45-5.92,34.56-10.7.4-6.07-.26-12.16-1.94-18-1.52-3.08-4.03-5.55-7.14-7-4.6-2.05-9.62-2.98-14.65-2.73-5.38-.31-10.71,1.22-15.11,4.33-4.55,4.4-7.66,10.07-8.92,16.27l-32.41-7.13c2.33-13.78,9.17-26.4,19.46-35.86,11.38-7.98,25.15-11.83,39.02-10.91,11.86-.64,23.7,1.54,34.56,6.36,7.44,3.71,13.44,9.79,17.05,17.29,4.24,12.81,5.98,26.31,5.12,39.77l-.31,50.84c-.22,10.65.35,21.3,1.7,31.87,1.32,7.62,3.45,15.08,6.36,22.25h-35.35l-4.67-17.97c-5.42,6.67-12.08,12.22-19.61,16.34-6.85,3.63-14.49,5.52-22.25,5.5-12.16.4-23.9-4.42-32.26-13.26-8.67-9.65-13.19-22.33-12.56-35.29-.19-8.4,1.56-16.73,5.12-24.35,3.24-6.73,8.24-12.47,14.46-16.61ZM1589.11,1143.81c3.51,4.18,8.73,6.55,14.19,6.44,5.43-.13,10.69-1.94,15.04-5.2,4.57-3.01,8.14-7.31,10.27-12.36,2.39-8.43,3.36-17.2,2.88-25.95v-8.7c-6.94,2.61-14.04,4.8-21.25,6.54-7.91,1.41-15.36,4.72-21.71,9.64-3.48,3.68-5.32,8.61-5.12,13.67-.16,5.83,1.87,11.5,5.7,15.91h0ZM1759.56,1008.68c14-.61,27.75,3.84,38.73,12.54,11.25,10.62,18.78,24.58,21.48,39.81l-35.2,7.74c-2.6-17.24-10.77-25.86-24.49-25.87-8.56-.14-16.61,4.09-21.37,11.21-6.39,11.5-9.21,24.65-8.11,37.76-1.16,14.31,1.64,28.65,8.09,41.48,4.53,7.61,12.76,12.23,21.61,12.14,6.28.19,12.33-2.32,16.63-6.89,5.38-7.07,8.62-15.54,9.34-24.39l35.2,7.28c-6.48,35.49-23.87,55.08-52.16,58.78,4.9,1.12,9.43,3.47,13.17,6.84,5.85,5.46,9.05,13.2,8.76,21.2.21,9.51-4.11,18.56-11.64,24.38-9.53,6.86-21.15,10.21-32.87,9.47-8.35.28-16.69-.55-24.82-2.48v-18.28c7.97,1.08,16,1.65,24.04,1.7,5.58.4,11.14-1.04,15.81-4.11,3.35-2.42,5.32-6.32,5.28-10.45.08-3.6-1.49-7.04-4.27-9.34-3.44-2.62-7.71-3.91-12.02-3.64-5.67.05-11.28,1.1-16.59,3.09l3.25-15.48c3.29-1.38,6.71-2.41,10.21-3.09-15.57-1.95-29.42-10.86-37.65-24.22-11.04-18.21-16.59-39.23-15.97-60.52,0-28.24,6.03-49.72,18.08-64.44,11.41-14.49,29.01-22.73,47.45-22.21ZM1929.47,989.79c-2.77,0-5.53-.36-8.2-1.08-4.65-1.62-9.2-3.54-13.62-5.73-5.66-3.13-11.85-5.18-18.26-6.04-2.45-.06-4.77,1.05-6.27,2.99-1.9,3.09-2.79,6.7-2.55,10.33h-16.28l-.16-5.09c-.64-9,1.68-17.97,6.6-25.53,3.83-5.42,10.07-8.61,16.71-8.56,2.79-.01,5.57.41,8.24,1.24,4.34,1.63,8.55,3.6,12.58,5.88,5.18,3.3,11.01,5.41,17.1,6.2,5.9,0,9.37-4.49,10.41-13.48h16.28c.76,10.4-1.47,20.8-6.43,29.97-3.49,5.57-9.62,8.94-16.19,8.9h.03ZM1873.14,1018.62c10.4-6.64,22.52-10.09,34.86-9.94,20.28-.71,39.54,8.9,51.17,25.53,12.51,17.35,19.04,38.29,18.6,59.67.24,15.84-3.07,31.54-9.69,45.93-5.44,12.44-14.25,23.12-25.43,30.82-10.22,6.8-22.23,10.39-34.5,10.32-19.27.36-37.66-8.1-49.93-22.97-13.23-15.32-19.85-37.15-19.85-65.49-.2-15.23,3.09-30.3,9.61-44.06,5.42-12.1,14.12-22.43,25.12-29.82h.03ZM1884.79,1132.64c5.29,7.89,14.12,12.68,23.62,12.82,9.38-.19,18.06-5.02,23.16-12.9,7.18-11.34,10.56-24.68,9.64-38.07.88-13.21-2.56-26.35-9.8-37.44-5.23-7.9-14-12.72-23.47-12.9-9.4.2-18.09,5.03-23.24,12.9-12.99,23.52-12.96,52.07.06,75.58h.03ZM2057.32,1008.68c17.74-.75,34.72,7.25,45.44,21.41,12.61,16.34,18.91,40.44,18.91,72.3l-.15,4.97h-89.47c-.48,10.8,2.61,21.45,8.79,30.32,4.69,6.66,12.31,10.65,20.45,10.73,11.51,0,19.18-7.85,23.01-23.55l35.49,7.28c-3.37,14.28-11.14,27.15-22.2,36.79-10.45,8.14-23.4,12.39-36.64,12.01-17.72.99-34.86-6.43-46.27-20.02-13.87-18.79-20.68-41.86-19.25-65.17-1.2-23.59,5.63-46.89,19.38-66.11,9.93-13.46,25.78-21.27,42.5-20.95ZM2086.16,1080.71c.46-10.3-2.42-20.47-8.22-29-4.24-6-11.1-9.61-18.45-9.72-7.63.04-14.75,3.81-19.07,10.11-5.73,8.4-8.46,18.48-7.76,28.62h53.5ZM2202.78,1149.49c6.78.5,13.54-1.24,19.23-4.96,4.08-3,6.45-7.8,6.35-12.86.18-3.09-.82-6.14-2.8-8.53-3.37-2.76-7.38-4.63-11.67-5.42-29.34-7.79-47.98-15.2-55.93-22.25-10.12-9.23-15.58-22.5-14.89-36.18-.62-13.78,4.69-27.17,14.57-36.8,11.78-9.93,26.97-14.89,42.35-13.81,14.19-.96,28.32,2.64,40.32,10.27,10.17,8.45,17.03,20.21,19.38,33.22l-33.62,7.59c-1.85-12.32-13.03-21.04-25.43-19.83-6.49-.52-12.99.8-18.76,3.81-3.47,2.07-5.6,5.81-5.6,9.85.03,3.68,1.96,7.09,5.11,9,10.1,4.99,20.76,8.75,31.75,11.21,15.11,3.09,29.13,10.12,40.63,20.4,7.37,8.89,11.13,20.22,10.56,31.75.44,14.86-5.52,29.19-16.35,39.37-12.45,10.9-28.69,16.47-45.2,15.5-15.32.67-30.42-3.89-42.8-12.94-11.6-9.53-19.36-22.92-21.86-37.72l35.83-6.66c3.11,17.31,12.73,25.96,28.86,25.96h0Z"/>
  </g>
</svg>